<mxfile host="app.diagrams.net" modified="2021-11-02T07:12:15.986Z" agent="5.0 (Windows NT 10.0; Win64; x64) AppleWebKit/537.36 (KHTML, like Gecko) Chrome/94.0.4606.81 Safari/537.36" etag="UWpTUCYq3jwNFKjQVFaD" version="15.6.5" type="github">
  <diagram id="HcnWMBYI897_fy-ZZmk8" name="Page-1">
    <mxGraphModel dx="1822" dy="1594" grid="1" gridSize="10" guides="1" tooltips="1" connect="1" arrows="1" fold="1" page="0" pageScale="1" pageWidth="827" pageHeight="1169" math="0" shadow="1">
      <root>
        <mxCell id="0" />
        <mxCell id="1" parent="0" />
        <mxCell id="ka7Pwgxfcl2DBQd3cP3Z-8" value="门户" style="swimlane;horizontal=0;strokeColor=#36393d;fillColor=#BEEBDC;fontColor=default;startSize=40;fontSize=15;" vertex="1" parent="1">
          <mxGeometry x="-300" y="-470" width="690" height="130" as="geometry" />
        </mxCell>
        <mxCell id="ka7Pwgxfcl2DBQd3cP3Z-10" value="地灾智治管理版&lt;br&gt;（Web端）" style="rounded=1;whiteSpace=wrap;html=1;strokeColor=#6c8ebf;fillColor=#F0F0F0;fontColor=default;" vertex="1" parent="ka7Pwgxfcl2DBQd3cP3Z-8">
          <mxGeometry x="70" y="30" width="140" height="80" as="geometry" />
        </mxCell>
        <mxCell id="ka7Pwgxfcl2DBQd3cP3Z-13" value="地灾智防专业版&lt;br&gt;（浙政厅）" style="rounded=1;whiteSpace=wrap;html=1;strokeColor=#6c8ebf;fillColor=#F0F0F0;fontColor=default;" vertex="1" parent="ka7Pwgxfcl2DBQd3cP3Z-8">
          <mxGeometry x="240" y="30" width="160" height="80" as="geometry" />
        </mxCell>
        <mxCell id="ka7Pwgxfcl2DBQd3cP3Z-14" value="地灾智防公众版&lt;br&gt;（浙里办）" style="rounded=1;whiteSpace=wrap;html=1;strokeColor=#6c8ebf;fillColor=#F0F0F0;fontColor=default;" vertex="1" parent="ka7Pwgxfcl2DBQd3cP3Z-8">
          <mxGeometry x="430" y="30" width="150" height="80" as="geometry" />
        </mxCell>
        <mxCell id="ka7Pwgxfcl2DBQd3cP3Z-15" value="场景" style="swimlane;horizontal=0;strokeColor=#36393d;fillColor=#BEEBDC;fontColor=default;startSize=40;fontSize=15;" vertex="1" parent="1">
          <mxGeometry x="-300" y="-340" width="690" height="130" as="geometry" />
        </mxCell>
        <mxCell id="ka7Pwgxfcl2DBQd3cP3Z-19" value="码上治灾&lt;br&gt;（山区）" style="rounded=1;whiteSpace=wrap;html=1;fontColor=default;strokeColor=default;fillColor=#F0F0F0;" vertex="1" parent="ka7Pwgxfcl2DBQd3cP3Z-15">
          <mxGeometry x="70" y="25" width="140" height="75" as="geometry" />
        </mxCell>
        <mxCell id="ka7Pwgxfcl2DBQd3cP3Z-20" value="码上知险&lt;br&gt;（景区）" style="rounded=1;whiteSpace=wrap;html=1;fontColor=default;strokeColor=default;fillColor=#F0F0F0;" vertex="1" parent="ka7Pwgxfcl2DBQd3cP3Z-15">
          <mxGeometry x="240" y="25" width="160" height="75" as="geometry" />
        </mxCell>
        <mxCell id="ka7Pwgxfcl2DBQd3cP3Z-24" value="码上智行&lt;br&gt;（道路）" style="rounded=1;whiteSpace=wrap;html=1;fontColor=default;strokeColor=default;fillColor=#F0F0F0;" vertex="1" parent="ka7Pwgxfcl2DBQd3cP3Z-15">
          <mxGeometry x="430" y="26.25" width="150" height="73.75" as="geometry" />
        </mxCell>
        <mxCell id="ka7Pwgxfcl2DBQd3cP3Z-25" value="模型" style="swimlane;horizontal=0;strokeColor=#36393d;fillColor=#BEEBDC;fontColor=default;fontSize=15;startSize=40;verticalAlign=middle;align=center;labelPosition=center;verticalLabelPosition=middle;fontStyle=1;textDirection=ltr;" vertex="1" parent="1">
          <mxGeometry x="-300" y="-210" width="690" height="150" as="geometry">
            <mxRectangle x="-300" y="-210" width="30" height="50" as="alternateBounds" />
          </mxGeometry>
        </mxCell>
        <mxCell id="ka7Pwgxfcl2DBQd3cP3Z-26" value="预警生成模型" style="rounded=1;whiteSpace=wrap;html=1;fontColor=default;strokeColor=default;fillColor=#F0F0F0;" vertex="1" parent="ka7Pwgxfcl2DBQd3cP3Z-25">
          <mxGeometry x="70" y="25" width="120" height="85" as="geometry" />
        </mxCell>
        <mxCell id="ka7Pwgxfcl2DBQd3cP3Z-27" value="预警处置模型" style="rounded=1;whiteSpace=wrap;html=1;fontColor=default;strokeColor=default;fillColor=#F0F0F0;" vertex="1" parent="ka7Pwgxfcl2DBQd3cP3Z-25">
          <mxGeometry x="200" y="25" width="130" height="82.5" as="geometry" />
        </mxCell>
        <mxCell id="ka7Pwgxfcl2DBQd3cP3Z-28" value="预警触达模型" style="rounded=1;whiteSpace=wrap;html=1;fontColor=default;strokeColor=default;fillColor=#F0F0F0;" vertex="1" parent="ka7Pwgxfcl2DBQd3cP3Z-25">
          <mxGeometry x="340" y="25" width="130" height="80" as="geometry" />
        </mxCell>
        <mxCell id="ka7Pwgxfcl2DBQd3cP3Z-34" value="空间码模型" style="rounded=1;whiteSpace=wrap;html=1;fontColor=default;strokeColor=default;fillColor=#F0F0F0;" vertex="1" parent="ka7Pwgxfcl2DBQd3cP3Z-25">
          <mxGeometry x="490" y="25" width="130" height="75" as="geometry" />
        </mxCell>
        <mxCell id="ka7Pwgxfcl2DBQd3cP3Z-29" value="基础数据" style="swimlane;horizontal=0;strokeColor=#36393d;fillColor=#BEEBDC;fontColor=default;fontSize=15;startSize=40;verticalAlign=middle;align=center;labelPosition=center;verticalLabelPosition=middle;fontStyle=1;textDirection=ltr;" vertex="1" parent="1">
          <mxGeometry x="-300" y="-60" width="690" height="150" as="geometry">
            <mxRectangle x="-300" y="-210" width="30" height="50" as="alternateBounds" />
          </mxGeometry>
        </mxCell>
        <mxCell id="ka7Pwgxfcl2DBQd3cP3Z-30" value="人员基础信息" style="rounded=1;whiteSpace=wrap;html=1;fontColor=default;strokeColor=default;fillColor=#F0F0F0;" vertex="1" parent="ka7Pwgxfcl2DBQd3cP3Z-29">
          <mxGeometry x="70" y="22.5" width="120" height="85" as="geometry" />
        </mxCell>
        <mxCell id="ka7Pwgxfcl2DBQd3cP3Z-31" value="风险点基础信息" style="rounded=1;whiteSpace=wrap;html=1;fontColor=default;strokeColor=default;fillColor=#F0F0F0;" vertex="1" parent="ka7Pwgxfcl2DBQd3cP3Z-29">
          <mxGeometry x="200" y="22.5" width="120" height="85" as="geometry" />
        </mxCell>
        <mxCell id="ka7Pwgxfcl2DBQd3cP3Z-32" value="设备监测信息" style="rounded=1;whiteSpace=wrap;html=1;fontColor=default;strokeColor=default;fillColor=#F0F0F0;" vertex="1" parent="ka7Pwgxfcl2DBQd3cP3Z-29">
          <mxGeometry x="330" y="25" width="140" height="80" as="geometry" />
        </mxCell>
        <mxCell id="ka7Pwgxfcl2DBQd3cP3Z-33" value="人员上报及巡查信息" style="rounded=1;whiteSpace=wrap;html=1;fontColor=default;strokeColor=default;fillColor=#F0F0F0;" vertex="1" parent="ka7Pwgxfcl2DBQd3cP3Z-29">
          <mxGeometry x="480" y="25" width="140" height="80" as="geometry" />
        </mxCell>
        <mxCell id="ka7Pwgxfcl2DBQd3cP3Z-35" value="基础设施" style="swimlane;horizontal=0;strokeColor=#36393d;fillColor=#BEEBDC;fontColor=default;fontSize=15;startSize=40;verticalAlign=middle;align=center;labelPosition=center;verticalLabelPosition=middle;fontStyle=1;textDirection=ltr;" vertex="1" parent="1">
          <mxGeometry x="-300" y="90" width="690" height="150" as="geometry">
            <mxRectangle x="-300" y="-210" width="30" height="50" as="alternateBounds" />
          </mxGeometry>
        </mxCell>
        <mxCell id="ka7Pwgxfcl2DBQd3cP3Z-41" value="计算资源" style="rounded=1;whiteSpace=wrap;html=1;fontColor=default;strokeColor=default;fillColor=#F0F0F0;" vertex="1" parent="ka7Pwgxfcl2DBQd3cP3Z-35">
          <mxGeometry x="70" y="30" width="120" height="90" as="geometry" />
        </mxCell>
        <mxCell id="ka7Pwgxfcl2DBQd3cP3Z-42" value="存储资源" style="rounded=1;whiteSpace=wrap;html=1;fontColor=default;strokeColor=default;fillColor=#F0F0F0;" vertex="1" parent="ka7Pwgxfcl2DBQd3cP3Z-35">
          <mxGeometry x="210" y="32.5" width="120" height="87.5" as="geometry" />
        </mxCell>
        <mxCell id="ka7Pwgxfcl2DBQd3cP3Z-43" value="网络资源" style="rounded=1;whiteSpace=wrap;html=1;fontColor=default;strokeColor=default;fillColor=#F0F0F0;" vertex="1" parent="ka7Pwgxfcl2DBQd3cP3Z-35">
          <mxGeometry x="350" y="30" width="120" height="90" as="geometry" />
        </mxCell>
        <mxCell id="ka7Pwgxfcl2DBQd3cP3Z-44" value="设备资源" style="rounded=1;whiteSpace=wrap;html=1;fontColor=default;strokeColor=default;fillColor=#F0F0F0;" vertex="1" parent="ka7Pwgxfcl2DBQd3cP3Z-35">
          <mxGeometry x="490" y="30" width="130" height="90" as="geometry" />
        </mxCell>
      </root>
    </mxGraphModel>
  </diagram>
</mxfile>
